<svg width="6" height="10" viewBox="0 0 6 10" fill="none" xmlns="http://www.w3.org/2000/svg">
<path d="M5.49727 5.30953L1.12227 9.68453C1.08163 9.72518 1.03337 9.75742 0.98026 9.77942C0.927151 9.80142 0.870228 9.81274 0.812743 9.81274C0.755258 9.81274 0.698336 9.80142 0.645226 9.77942C0.592117 9.75742 0.54386 9.72518 0.503212 9.68453C0.462564 9.64388 0.43032 9.59563 0.408321 9.54252C0.386322 9.48941 0.375 9.43248 0.375 9.375C0.375 9.31751 0.386322 9.26059 0.408321 9.20748C0.43032 9.15437 0.462564 9.10612 0.503212 9.06547L4.56923 5L0.503212 0.93453C0.421119 0.852438 0.375 0.741096 0.375 0.624999C0.375 0.508902 0.421119 0.397561 0.503212 0.315468C0.585305 0.233375 0.696647 0.187256 0.812743 0.187256C0.92884 0.187256 1.04018 0.233375 1.12227 0.315468L5.49727 4.69047C5.53795 4.7311 5.57022 4.77935 5.59224 4.83246C5.61426 4.88557 5.62559 4.9425 5.62559 5C5.62559 5.05749 5.61426 5.11442 5.59224 5.16754C5.57022 5.22065 5.53795 5.2689 5.49727 5.30953Z" fill="#1E2F14"/>
</svg>
